<?xml version="1.0" encoding="UTF-8"?>
<svg width="30px" height="30px" viewBox="0 0 30 30" version="1.1" xmlns="http://www.w3.org/2000/svg" xmlns:xlink="http://www.w3.org/1999/xlink">
    <!-- Generator: Sketch 50.2 (55047) - http://www.bohemiancoding.com/sketch -->
    <title>Combined Shape</title>
    <desc>Created with Sketch.</desc>
    <defs></defs>
    <g id="Page-1" stroke="none" stroke-width="1" fill="none" fill-rule="evenodd">
        <g id="工作台" transform="translate(-20.000000, -15.000000)" fill="#FFFFFF" fill-rule="nonzero">
            <g id="logo" transform="translate(19.000000, 14.000000)">
                <path d="M22.7176762,15.5308614 C22.7176762,17.0174512 21.4534417,18.2225702 19.8939293,18.2225702 C18.334417,18.2225702 17.0701824,17.0174512 17.0701824,15.5308614 C17.0701824,14.0442717 18.334417,12.8391526 19.8939293,12.8391526 C21.4534417,12.8391526 22.7176762,14.0442717 22.7176762,15.5308614 Z M28.2169233,12.7382135 C29.738217,12.7382135 30.9665469,13.7980739 30.9665469,15.0934587 C30.9665469,16.3888436 29.7346873,17.448704 28.2169233,17.448704 C26.6991594,17.448704 25.4672998,16.3888436 25.4672998,15.0934587 C25.4672998,13.7980739 26.6991594,12.7382135 28.2169233,12.7382135 Z M18.0620235,22.2163932 C18.1199754,22.3674104 18.1648352,22.5227043 18.1961515,22.680713 C18.4608778,24.0703077 17.666699,25.3690572 16.4313097,25.5810292 C15.8015558,25.6775068 15.1597268,25.4982876 14.6841163,25.093157 C14.5263513,24.9650589 14.3853272,24.8193324 14.264084,24.659119 C13.1945898,23.3300877 13.7911064,21.7722613 13.9675905,21.2271902 C14.1687825,20.6181911 13.7487501,19.2555135 12.5839546,19.131022 C11.6792084,19.1105172 10.793435,18.8795036 10.0037558,18.4580948 C9.50257067,18.2276347 9.07040444,17.8804789 8.74718845,17.448704 C8.46128407,17.1458867 7.98477678,16.708484 7.56827411,16.708484 C7.30552994,16.7440994 7.05119609,16.8226367 6.8164515,16.9406439 C6.0850585,17.499176 5.02614581,17.4279949 4.38421973,16.7771471 C3.74229365,16.1262993 3.73300551,15.1144333 4.36288567,14.4529776 C4.99276582,13.7915218 6.05020971,13.7026885 6.79174372,14.2489351 L6.79174372,14.2186534 C6.82813821,14.2652774 6.86826093,14.3091485 6.91175296,14.3498742 C6.93293106,14.370062 6.95763885,14.3868852 6.97528726,14.407073 C7.26825101,14.6459622 7.88947532,14.9420501 8.70836193,14.1513607 C9.23957497,13.4772438 10.0011486,13.0012028 10.8614689,12.8055062 C12.1498035,12.4353963 13.3322475,11.8163033 13.5334394,10.7530783 C13.6852158,9.8782729 13.1134071,8.73429665 13.5757957,7.4590996 C13.6291251,7.26475365 13.7012025,7.07552765 13.7911064,6.89384075 C14.4723353,5.47396434 15.937154,4.72028587 17.0631231,5.21152273 C18.1890922,5.70275959 18.5491199,7.25049217 17.8678909,8.67373321 C17.8073819,8.79758947 17.7390147,8.91781744 17.6631693,9.03374926 C17.1281444,9.90711402 16.3018332,10.5846312 15.3159297,10.9583211 C14.8271634,11.1893315 14.4779484,11.6228282 14.3699745,12.132579 C14.2887917,12.5228768 14.408801,13.5457262 14.4440978,14.6257743 C14.5057764,15.4308116 14.4738148,16.2398828 14.3487964,17.0382184 C14.1934903,17.8154493 14.4582166,19.4708502 15.9089165,20.1437774 C17.4937445,20.8705388 17.9384846,21.802543 18.0620235,22.2163932 Z M21.8564334,25.0527814 C22.9576947,24.83408 24.0624857,25.6651451 24.3236823,26.9033312 C24.5848789,28.1415173 23.9107093,29.3258691 22.8200371,29.5412058 C21.7293648,29.7565425 20.6069254,28.9288421 20.3492585,27.690656 C20.0915916,26.45247 20.7516425,25.2714827 21.8564334,25.0527814 Z M11.2144373,27.6031755 C12.0297942,27.441673 12.8698589,28.060766 13.0745806,28.9894055 C13.2793022,29.9180451 12.7710278,30.806309 11.9450818,30.9678115 C11.1191358,31.129314 10.2896602,30.510221 10.0849385,29.5815815 C9.88021689,28.6529419 10.3849617,27.7680427 11.2144373,27.6031755 Z M4.29978707,22.8422155 C4.89463643,22.9197568 5.35011902,23.3855832 5.38948801,23.956663 C5.428857,24.5277429 5.04124132,25.0463822 4.46215252,25.1974607 C3.86730316,25.1199194 3.41182058,24.654093 3.37245159,24.0830132 C3.33308259,23.5119334 3.72069827,22.9932941 4.29978707,22.8422155 Z M2.09373481,14.7065256 C2.70230947,14.8120879 3.13517357,15.3304264 3.10664094,15.9194428 C3.07810831,16.5084591 2.59697523,16.9865664 1.98078493,17.0382184 C1.37221026,16.9326561 0.939346166,16.4143176 0.967878795,15.8253012 C0.996411424,15.2362848 1.4775445,14.7581776 2.09373481,14.7065256 Z M3.90799219,8.8318711 C3.44913332,8.67036857 3.23382262,8.08155727 3.44913332,7.50956914 C3.66444402,6.93758102 4.2291934,6.60784669 4.68805227,6.76598458 C5.14691114,6.92412247 5.35869216,7.51629841 5.14691114,8.08828654 C4.93513013,8.66027466 4.37744011,8.99000899 3.90799219,8.8318711 Z M10.9108845,3.60995599 C10.3390758,3.31386802 10.1555322,2.51644928 10.5579161,1.82333426 C10.9603001,1.13021923 11.7297711,0.807214176 12.322758,1.10330215 C12.9157448,1.39939012 13.0781103,2.20017349 12.6757263,2.89328851 C12.2733424,3.58640353 11.4897526,3.90604396 10.9108845,3.60995599 Z M21.3128622,5.03319703 C20.4939756,4.61598216 20.3139617,3.461912 20.8504736,2.48953219 C21.3869855,1.51715238 22.4847171,1.06292651 23.3212521,1.48014138 C24.1577872,1.89735625 24.3589791,3.04806177 23.8048188,4.02380622 C23.2506585,4.99955066 22.1352785,5.45377653 21.3128622,5.03319703 Z M7.88594564,11.5168506 C6.85527802,11.365442 6.18816782,10.238289 6.38935978,9.0001029 C6.59055175,7.76191684 7.58945222,6.87701757 8.62011984,7.0385201 C9.65078746,7.20002263 10.3214273,8.31708179 10.1202354,9.55526784 C9.91904341,10.7934539 8.91661326,11.6716239 7.88594564,11.5168506 Z M9.9649293,22.06162 C10.2402446,23.2022316 9.69314366,24.2923736 8.75071813,24.4942518 C7.8082926,24.69613 6.82351087,23.9458161 6.54819555,22.8119338 C6.27288022,21.6780514 6.81292182,20.5845447 7.75887703,20.3793019 C8.70483224,20.1740591 9.69314366,20.9277376 9.9649293,22.06162 Z" id="Combined-Shape"></path>
            </g>
        </g>
    </g>
</svg>